<?xml version="1.0" encoding="UTF-8"?>
<svg width="1280px" height="640px" viewBox="0 0 1280 640" version="1.1" xmlns="http://www.w3.org/2000/svg" xmlns:xlink="http://www.w3.org/1999/xlink">
    <title>1280x640-svg白底</title>
    <g id="1280x640-svg白底" stroke="none" stroke-width="1" fill="none" fill-rule="evenodd">
        <rect id="矩形" fill="#FFFFFF" x="0" y="0" width="1280" height="640"></rect>
        <g id="编组-2" transform="translate(319.000000, 40.000000)">
            <path d="M30.8310246,536.353958 L32.0117872,529.794552 C32.2741789,528.417076 32.8645602,524.547026 32.8645602,522.710393 C32.8645602,517.790838 29.3222723,517.003709 23.7464487,517.003709 L15.3499144,517.003709 C13.5131725,517.003709 12.5948015,516.675739 12.5948015,515.560639 C12.5948015,514.970293 12.7915953,513.658412 13.1195849,511.952966 L13.90676,507.886134 C14.5627393,504.540836 15.0875227,503.884896 18.1050272,503.884896 L34.0453229,503.884896 L37.0628274,496.669549 L17.6458417,496.669549 C9.44610114,496.669549 6.88778208,498.506182 5.51022566,506.37747 L4.2638651,513.330441 C3.93587547,515.232669 3.67348378,516.938115 3.67348378,518.381184 C3.67348378,522.51361 5.44462774,524.547026 10.7580596,524.547026 L20.5321504,524.547026 C22.8936757,524.547026 23.8120466,524.678215 23.8120466,526.121284 C23.8120466,526.842819 23.6808508,528.285888 23.2216653,530.581681 L22.5656861,533.992572 C21.712913,538.584157 21.0569338,539.043315 16.7274708,539.043315 L0,539.043315 L1.31195849,546.324256 L16.5962749,546.324256 C25.4519947,546.324256 29.2566744,545.209157 30.8310246,536.353958 Z M43.0456861,558 L45.0792218,546.38985 L54.2629312,546.38985 C65.0865888,546.38985 67.7105057,543.96287 69.5472476,533.533413 L71.1215978,524.743809 C71.7119791,521.398511 71.9743708,519.233907 71.9743708,517.725244 C71.9743708,511.493807 68.5632788,509.132421 60.1667444,509.132421 L43.5704695,509.132421 L34.9115434,558 L43.0456861,558 Z M54.7221167,539.76485 L46.2599844,539.76485 L50.5238495,515.757422 L58.0020129,515.757422 C62.265878,515.757422 63.7090323,516.282174 63.7090323,519.102719 C63.7090323,520.283412 63.5122386,521.923264 62.9874552,524.743809 L61.413105,533.533413 C60.494734,538.584157 59.4451672,539.76485 54.7221167,539.76485 Z M82.745878,546.324256 L87.140939,521.595294 C87.993712,516.675739 88.9776809,515.88861 93.7007314,515.88861 L99.6701426,515.88861 L102.490853,509.132421 L93.4383397,509.132421 C83.1394656,509.132421 80.7779403,510.969055 79.0067963,521.136135 L74.5461375,546.324256 L82.745878,546.324256 Z M117.263834,503.032173 L118.772586,494.636132 L110.376052,494.636132 L108.8673,503.032173 L117.263834,503.032173 Z M109.588877,546.324256 L116.083071,509.132421 L107.948929,509.132421 L101.454734,546.324256 L109.588877,546.324256 Z M126.723383,546.324256 L132.036815,515.88861 L141.614112,515.88861 C144.697214,515.88861 145.681183,516.347768 145.681183,518.643561 C145.681183,519.627472 145.484389,521.267323 145.025204,523.825492 L141.02373,546.324256 L149.157873,546.324256 L153.093748,523.825492 C153.749728,520.021036 154.143315,517.594056 154.143315,515.823016 C154.143315,511.100243 151.519398,509.132421 143.122864,509.132421 L125.083435,509.132421 L118.58924,546.324256 L126.723383,546.324256 Z M175.148099,558 C182.69186,558 186.562137,556.22896 188.136488,547.308167 L192.203559,524.28465 C192.79394,520.939353 193.056332,518.774749 193.056332,517.266085 C193.056332,510.969055 189.579642,508.673263 181.248706,508.673263 L176.722449,508.673263 C165.767595,508.673263 163.340472,511.034649 161.438132,521.529699 L160.454163,526.974007 C159.863782,530.319304 159.60139,532.483908 159.60139,533.992572 C159.60139,540.289602 163.07808,542.585395 171.409017,542.585395 L180.855118,542.585395 L180.395933,545.143563 C179.411964,550.915841 178.427995,551.309405 173.311357,551.309405 L159.798184,551.309405 L160.978947,558 L175.148099,558 Z M182.035881,535.960394 L173.50815,535.960394 C169.178687,535.960394 167.801131,535.435641 167.801131,532.615097 C167.801131,531.434403 168.129121,529.532175 168.588306,526.974007 L169.572275,521.529699 C170.425048,516.741333 171.212223,515.232669 176.197665,515.232669 L179.149572,515.232669 C183.413437,515.232669 184.856591,515.757422 184.856591,518.577966 C184.856591,519.75866 184.5942,521.398511 184.069416,524.219056 L182.035881,535.960394 Z M239.657754,546.324256 L242.740856,539.043315 L230.539642,539.043315 C225.029416,539.043315 222.733489,538.452968 222.733489,534.910889 C222.733489,533.139849 223.258272,529.860146 224.045448,525.662126 L226.406973,512.543312 C227.587735,506.0495 228.506106,503.95049 233.75394,503.95049 L246.08635,503.95049 L249.103855,496.669549 L232.704374,496.669549 C223.192674,496.669549 219.978376,499.424499 218.207232,509.460391 L214.79614,528.48267 C214.074563,532.418314 213.877769,534.582919 213.877769,536.550741 C213.877769,543.831682 217.748047,546.324256 226.931756,546.324256 L239.657754,546.324256 Z M264.204825,546.324256 L267.025536,539.699256 L263.220856,539.699256 C258.956991,539.699256 257.317043,539.633662 257.317043,537.075493 C257.317043,535.698018 257.71063,533.533413 258.235414,530.712869 L264.729608,493.980192 L256.595466,493.980192 L250.101271,530.712869 C249.51089,534.058166 249.051704,536.813117 249.051704,539.043315 C249.051704,544.618811 252.266003,546.324256 259.547372,546.324256 L264.204825,546.324256 Z M287.111948,546.783415 C298.066802,546.783415 300.625121,544.422028 302.461863,533.926978 L304.167409,524.28465 C304.75779,520.939353 305.020182,518.774749 305.020182,517.266085 C305.020182,510.969055 301.543492,508.673263 293.212555,508.673263 L288.686298,508.673263 C277.731445,508.673263 275.173126,511.034649 273.336384,521.529699 L271.630838,531.172027 C271.040457,534.517324 270.778065,536.681929 270.778065,538.190592 C270.778065,544.487622 274.254755,546.783415 282.585691,546.783415 L287.111948,546.783415 Z M287.636732,540.158414 L284.684825,540.158414 C280.355362,540.158414 278.977806,539.633662 278.977806,536.813117 C278.977806,535.632424 279.240197,533.992572 279.764981,531.172027 L281.470527,521.529699 C282.3233,516.741333 283.176073,515.232669 288.161515,515.232669 L291.113422,515.232669 C295.377287,515.232669 296.820441,515.757422 296.820441,518.577966 C296.820441,519.75866 296.558049,521.398511 296.033266,524.219056 L294.32772,533.861384 C293.474947,538.649751 292.622174,540.158414 287.636732,540.158414 Z M339.013354,546.324256 L345.573147,509.132421 L337.439004,509.132421 L332.059974,539.568068 L322.08909,539.568068 C319.005987,539.568068 318.022018,539.108909 318.022018,536.813117 C318.022018,535.829206 318.218812,534.189354 318.677997,531.631186 L322.679471,509.132421 L314.545328,509.132421 L310.609453,531.631186 C309.953473,535.435641 309.559886,537.862622 309.559886,539.633662 C309.559886,544.356434 312.183803,546.324256 320.580337,546.324256 L339.013354,546.324256 Z M377.139196,546.324256 L386.388503,493.980192 L378.254361,493.980192 L375.564846,509.132421 L366.57793,509.132421 C355.688674,509.132421 352.99916,511.559401 351.228016,521.988858 L349.719263,530.712869 C349.128882,534.058166 348.86649,536.22277 348.86649,537.731434 C348.86649,543.96287 352.34318,546.324256 360.674117,546.324256 L377.139196,546.324256 Z M370.185816,539.699256 L362.904446,539.699256 C358.640581,539.699256 357.131829,539.174503 357.131829,536.353958 C357.131829,535.173265 357.328623,533.664602 357.853406,530.844057 L359.427756,521.988858 C360.280529,517.069303 361.330096,515.757422 366.118745,515.757422 L374.384083,515.757422 L370.185816,539.699256 Z M419.607948,546.324256 L427.086112,503.95049 L439.15613,503.95049 L440.468088,496.669549 L407.406734,496.669549 L406.094776,503.95049 L418.230392,503.95049 L410.752228,546.324256 L419.607948,546.324256 Z M458.717759,546.324256 L461.407274,539.699256 L448.222091,539.699256 C444.417411,539.699256 443.236649,539.174503 443.236649,536.878711 C443.236649,536.157176 443.367844,535.107671 443.564638,533.992572 L443.892628,531.959156 L458.324171,531.959156 C463.768799,531.959156 465.933531,529.92574 466.983097,524.087868 L467.901468,518.905937 C468.098262,517.856432 468.16386,516.806927 468.16386,516.019798 C468.16386,510.509896 464.490376,508.673263 457.602594,508.673263 L453.141935,508.673263 C443.49904,508.673263 439.694361,510.509896 438.12001,519.561877 L435.561691,534.254948 C435.2993,535.829206 435.102506,537.469057 435.102506,538.846533 C435.102506,544.159652 438.12001,546.324256 446.647741,546.324256 L458.717759,546.324256 Z M456.225038,525.596532 L445.07339,525.596532 L446.122957,519.561877 C446.815671,515.783659 448.173391,515.269822 450.950595,515.23476 L455.962646,515.232669 C458.98015,515.232669 459.964119,515.626234 459.964119,517.200491 C459.964119,517.65965 459.898521,518.118808 459.767326,518.905937 L459.045748,523.169551 C458.783357,524.874997 458.06178,525.596532 456.225038,525.596532 Z M478.016996,546.324256 L483.330428,515.88861 L492.907725,515.88861 C495.990828,515.88861 496.974796,516.347768 496.974796,518.643561 C496.974796,519.627472 496.778003,521.267323 496.318817,523.825492 L492.317344,546.324256 L500.451486,546.324256 L504.387362,523.825492 C505.043341,520.021036 505.436929,517.594056 505.436929,515.823016 C505.436929,511.100243 502.813012,509.132421 494.416477,509.132421 L476.377048,509.132421 L469.882854,546.324256 L478.016996,546.324256 Z M532.739113,546.324256 L535.559824,539.699256 L524.080187,539.699256 C519.750724,539.699256 518.307569,539.174503 518.307569,536.353958 C518.307569,535.173265 518.569961,533.533413 519.094745,530.712869 L520.669095,521.988858 C521.587466,517.069303 522.571435,515.757422 527.360083,515.757422 L537.199772,515.757422 L539.954885,509.132421 L527.819269,509.132421 C516.864415,509.132421 514.306096,511.559401 512.469354,522.120046 L510.960602,530.712869 C510.370221,534.058166 510.107829,536.22277 510.107829,537.731434 C510.107829,543.96287 513.584519,546.324256 521.915455,546.324256 L532.739113,546.324256 Z M564.829946,546.324256 L567.51946,539.699256 L554.334278,539.699256 C550.529598,539.699256 549.348835,539.174503 549.348835,536.878711 C549.348835,536.157176 549.480031,535.107671 549.676825,533.992572 L550.004815,531.959156 L564.436358,531.959156 C569.880986,531.959156 572.045717,529.92574 573.095284,524.087868 L574.013655,518.905937 C574.210449,517.856432 574.276047,516.806927 574.276047,516.019798 C574.276047,510.509896 570.602563,508.673263 563.714781,508.673263 L559.254122,508.673263 C549.611227,508.673263 545.806547,510.509896 544.232197,519.561877 L541.673878,534.254948 C541.411486,535.829206 541.214693,537.469057 541.214693,538.846533 C541.214693,544.159652 544.232197,546.324256 552.759927,546.324256 L564.829946,546.324256 Z M562.337224,525.596532 L551.185577,525.596532 L552.235144,519.561877 C552.927858,515.783659 554.285578,515.269822 557.062782,515.23476 L562.074833,515.232669 C565.092337,515.232669 566.076306,515.626234 566.076306,517.200491 C566.076306,517.65965 566.010708,518.118808 565.879512,518.905937 L565.157935,523.169551 C564.895543,524.874997 564.173966,525.596532 562.337224,525.596532 Z M584.129183,546.324256 L589.442615,515.88861 L599.019912,515.88861 C602.103014,515.88861 603.086983,516.347768 603.086983,518.643561 C603.086983,519.627472 602.890189,521.267323 602.431004,523.825492 L598.429531,546.324256 L606.563673,546.324256 L610.499549,523.825492 C611.155528,520.021036 611.549115,517.594056 611.549115,515.823016 C611.549115,511.100243 608.925198,509.132421 600.528664,509.132421 L582.489235,509.132421 L575.99504,546.324256 L584.129183,546.324256 Z M634.390641,546.324256 L637.211352,539.699256 L632.750693,539.699256 C628.486828,539.699256 626.846879,539.633662 626.846879,537.009899 C626.846879,535.960394 627.109271,534.254948 627.437261,532.483908 L630.389167,515.757422 L640.819237,515.757422 L642,509.132421 L631.56993,509.132421 L633.537868,498.112618 L625.403725,498.112618 L623.435787,509.132421 L618.515943,509.132421 L617.400778,515.757422 L622.255025,515.757422 L619.303118,532.483908 C618.909531,534.582919 618.581541,536.878711 618.581541,538.584157 C618.581541,544.356434 622.255025,546.324256 629.601992,546.324256 L634.390641,546.324256 Z" id="SpringCloudTencent" fill="#000000" fill-rule="nonzero"></path>
            <g id="编组" transform="translate(83.649787, 0.000000)">
                <polygon id="路径-2备份-10" fill="#95D2F7" points="257.639612 26.0227787 257.639612 94.0471013 316.67351 60.03494"></polygon>
                <polygon id="矩形备份-25" fill="#7F98FF" points="128.976318 165.632275 291.082089 259.679376 291.082089 447.773579 128.976318 353.726478"></polygon>
                <polygon id="矩形备份-26" fill="#7F98FF" transform="translate(338.164062, 145.658818) scale(-1, 1) translate(-338.164062, -145.658818) " points="257.111176 5.17484077e-13 419.216947 94.0471013 419.216947 291.317637 257.111176 197.270536"></polygon>
                <polygon id="矩形备份-27" fill="#95D2F7" transform="translate(128.976318, 91.992470) scale(-1, 1) translate(-128.976318, -91.992470) " points="128.976318 17.1657155 257.952635 91.9924704 128.976318 166.819225 9.16431856e-13 91.9924704"></polygon>
                <polygon id="路径-3" fill="#4065FF" points="257.111176 240.110742 257.111176 291.317637 291.082089 271.961008 291.082089 259.679376"></polygon>
            </g>
        </g>
    </g>
</svg>