<?xml version="1.0" encoding="UTF-8"?>
<svg width="640px" height="640px" viewBox="0 0 640 640" version="1.1" xmlns="http://www.w3.org/2000/svg" xmlns:xlink="http://www.w3.org/1999/xlink">
    <title>640x640-svg透明</title>
    <g id="640x640-svg透明" stroke="none" stroke-width="1" fill="none" fill-rule="evenodd">
        <rect id="矩形" x="0" y="0" width="640" height="640"></rect>
        <g id="编组-2" transform="translate(32.000000, 68.000000)">
            <path d="M27.7575268,482.526321 L28.820581,476.625206 C29.0568153,475.385972 29.5883424,471.904314 29.5883424,470.252002 C29.5883424,465.826166 26.3991797,465.118032 21.3792015,465.118032 L13.8197048,465.118032 C12.1660649,465.118032 11.339245,464.822976 11.339245,463.819787 C11.339245,463.288686 11.5164207,462.108463 11.8117135,460.574174 L12.5204163,456.915482 C13.111002,453.905914 13.5834706,453.315802 16.3001647,453.315802 L30.6513966,453.315802 L33.3680907,446.824576 L15.8867547,446.824576 C8.50443374,446.824576 6.2011496,448.476888 4.96091968,455.558226 L3.83880689,461.813408 C3.54351406,463.524731 3.30727979,465.059021 3.30727979,466.357266 C3.30727979,470.074969 4.90186111,471.904314 9.68560509,471.904314 L18.4853317,471.904314 C20.6114401,471.904314 21.43826,472.022336 21.43826,473.320582 C21.43826,473.969704 21.3201429,475.26795 20.9067329,477.33334 L20.3161473,480.40192 C19.5483859,484.5327 18.9578002,484.945778 15.0599347,484.945778 L0,484.945778 L1.18117135,491.496016 L14.9418176,491.496016 C22.9147242,491.496016 26.3401212,490.492826 27.7575268,482.526321 Z M38.7545274,502 L40.585343,491.555027 L48.8535424,491.555027 C58.5982061,491.555027 60.9605488,489.371614 62.6141887,479.988842 L64.0315943,472.081348 C64.5631214,469.071779 64.7993557,467.124411 64.7993557,465.767155 C64.7993557,460.161096 61.7283102,458.036694 54.1688135,458.036694 L39.2269959,458.036694 L31.431265,502 L38.7545274,502 Z M49.2669524,485.594901 L41.6483972,485.594901 L45.4872041,463.99682 L52.2198808,463.99682 C56.0586877,463.99682 57.3579762,464.468909 57.3579762,467.006389 C57.3579762,468.068589 57.1808005,469.543868 56.7083319,472.081348 L55.2909263,479.988842 C54.4641063,484.5327 53.5191693,485.594901 49.2669524,485.594901 Z M74.4970678,491.496016 L78.4539918,469.248812 C79.2217532,464.822976 80.1076317,464.114843 84.3598486,464.114843 L89.7341782,464.114843 L92.2736966,458.036694 L84.1236143,458.036694 C74.8514192,458.036694 72.7253107,459.689006 71.1307294,468.835734 L67.1147468,491.496016 L74.4970678,491.496016 Z M105.573981,452.548657 L106.932328,444.99523 L99.3728317,444.99523 L98.0144847,452.548657 L105.573981,452.548657 Z M98.6641289,491.496016 L104.510927,458.036694 L97.1876647,458.036694 L91.3408665,491.496016 L98.6641289,491.496016 Z M114.090522,491.496016 L118.874266,464.114843 L127.496817,464.114843 C130.27257,464.114843 131.158448,464.527921 131.158448,466.593311 C131.158448,467.478478 130.981272,468.953757 130.567862,471.255191 L126.96529,491.496016 L134.288552,491.496016 L137.832066,471.255191 C138.422652,467.832545 138.777003,465.649132 138.777003,464.055831 C138.777003,459.807029 136.414661,458.036694 128.855164,458.036694 L112.614058,458.036694 L106.76726,491.496016 L114.090522,491.496016 Z M157.687852,502 C164.479587,502 167.964043,500.406699 169.381448,492.381183 L173.04308,471.66827 C173.574607,468.658701 173.810841,466.711333 173.810841,465.354077 C173.810841,459.689006 170.680737,457.623616 163.180299,457.623616 L159.105258,457.623616 C149.242477,457.623616 147.05731,459.748017 145.344611,469.189801 L144.458733,474.087727 C143.927206,477.097295 143.690971,479.044663 143.690971,480.40192 C143.690971,486.06699 146.821076,488.13238 154.321514,488.13238 L162.825947,488.13238 L162.412537,490.433815 C161.526659,495.626796 160.64078,495.980863 156.034212,495.980863 L143.868147,495.980863 L144.931201,502 L157.687852,502 Z M163.889002,482.172254 L156.211388,482.172254 C152.313522,482.172254 151.073292,481.700165 151.073292,479.162685 C151.073292,478.100485 151.368585,476.389161 151.781995,474.087727 L152.667874,469.189801 C153.435635,464.881987 154.144338,463.524731 158.632789,463.524731 L161.290425,463.524731 C165.129231,463.524731 166.42852,463.99682 166.42852,466.5343 C166.42852,467.5965 166.192286,469.071779 165.719817,471.609258 L163.889002,482.172254 Z M215.766638,491.496016 L218.542391,484.945778 L207.557497,484.945778 C202.596577,484.945778 200.529527,484.414678 200.529527,481.228076 C200.529527,479.634775 201.001996,476.684217 201.710699,472.907504 L203.836807,461.105274 C204.899861,455.26317 205.726681,453.374813 210.451367,453.374813 L221.554378,453.374813 L224.271072,446.824576 L209.50643,446.824576 C200.942937,446.824576 198.049068,449.303044 196.454486,458.33175 L193.383441,475.444983 C192.733797,478.985652 192.556621,480.93302 192.556621,482.703354 C192.556621,489.253592 196.041076,491.496016 204.309276,491.496016 L215.766638,491.496016 Z M237.866649,491.496016 L240.406168,485.535889 L236.980771,485.535889 C233.141964,485.535889 231.6655,485.476878 231.6655,483.175444 C231.6655,481.936209 232.019851,479.988842 232.49232,477.451362 L238.339118,444.405119 L231.015855,444.405119 L225.169057,477.451362 C224.63753,480.460931 224.22412,482.939399 224.22412,484.945778 C224.22412,489.961726 227.11799,491.496016 233.673491,491.496016 L237.866649,491.496016 Z M258.490196,491.909094 C268.352977,491.909094 270.656261,489.784692 272.309901,480.342908 L273.845424,471.66827 C274.376951,468.658701 274.613185,466.711333 274.613185,465.354077 C274.613185,459.689006 271.483081,457.623616 263.982643,457.623616 L259.907602,457.623616 C250.044821,457.623616 247.741537,459.748017 246.087897,469.189801 L244.552374,477.86444 C244.020847,480.874009 243.784613,482.821377 243.784613,484.178633 C243.784613,489.843703 246.914717,491.909094 254.415155,491.909094 L258.490196,491.909094 Z M258.962665,485.948968 L256.305029,485.948968 C252.407164,485.948968 251.166934,485.476878 251.166934,482.939399 C251.166934,481.877198 251.403168,480.40192 251.875637,477.86444 L253.41116,469.189801 C254.178921,464.881987 254.946682,463.524731 259.435133,463.524731 L262.092769,463.524731 C265.931576,463.524731 267.230864,463.99682 267.230864,466.5343 C267.230864,467.5965 266.99463,469.071779 266.522162,471.609258 L264.986639,480.283897 C264.218877,484.591711 263.451116,485.948968 258.962665,485.948968 Z M305.21763,491.496016 L311.123487,458.036694 L303.800225,458.036694 L298.957422,485.417867 L289.98052,485.417867 C287.204767,485.417867 286.318889,485.004789 286.318889,482.939399 C286.318889,482.054232 286.496064,480.578953 286.909474,478.277518 L290.512047,458.036694 L283.188785,458.036694 L279.645271,478.277518 C279.054685,481.700165 278.700333,483.883577 278.700333,485.476878 C278.700333,489.725681 281.062676,491.496016 288.622173,491.496016 L305.21763,491.496016 Z M339.542765,491.496016 L347.870023,444.405119 L340.546761,444.405119 L338.125359,458.036694 L330.034336,458.036694 C320.230613,458.036694 317.809212,460.220107 316.214631,469.602879 L314.856284,477.451362 C314.324757,480.460931 314.088522,482.408299 314.088522,483.765555 C314.088522,489.371614 317.218627,491.496016 324.719065,491.496016 L339.542765,491.496016 Z M333.282557,485.535889 L326.727056,485.535889 C322.888249,485.535889 321.529902,485.0638 321.529902,482.526321 C321.529902,481.46412 321.707078,480.106864 322.179546,477.569384 L323.596952,469.602879 C324.364713,465.177043 325.30965,463.99682 329.620926,463.99682 L337.062305,463.99682 L333.282557,485.535889 Z M377.777872,491.496016 L384.510549,453.374813 L395.377325,453.374813 L396.558497,446.824576 L366.792979,446.824576 L365.611807,453.374813 L376.537642,453.374813 L369.804966,491.496016 L377.777872,491.496016 Z M412.988886,491.496016 L415.410287,485.535889 L403.539515,485.535889 C400.114118,485.535889 399.051064,485.0638 399.051064,482.99841 C399.051064,482.349287 399.169181,481.405109 399.346357,480.40192 L399.641649,478.572574 L412.634534,478.572574 C417.536395,478.572574 419.485328,476.743228 420.430265,471.491236 L421.257085,466.829355 C421.434261,465.885177 421.493319,464.940999 421.493319,464.232865 C421.493319,459.275928 418.18604,457.623616 411.98489,457.623616 L407.968907,457.623616 C399.287298,457.623616 395.861901,459.275928 394.444495,467.419467 L392.141211,480.637964 C391.904977,482.054232 391.727801,483.52951 391.727801,484.768745 C391.727801,489.548648 394.444495,491.496016 402.122109,491.496016 L412.988886,491.496016 Z M410.74466,472.848493 L400.704704,472.848493 L401.649641,467.419467 C402.273299,464.020425 403.49567,463.558155 405.996019,463.526612 L410.508426,463.524731 C413.22512,463.524731 414.110998,463.878798 414.110998,465.295065 C414.110998,465.708144 414.05194,466.121222 413.933823,466.829355 L413.284178,470.66508 C413.047944,472.19937 412.3983,472.848493 410.74466,472.848493 Z M430.364212,491.496016 L435.147956,464.114843 L443.770506,464.114843 C446.546259,464.114843 447.432138,464.527921 447.432138,466.593311 C447.432138,467.478478 447.254962,468.953757 446.841552,471.255191 L443.238979,491.496016 L450.562242,491.496016 L454.105756,471.255191 C454.696341,467.832545 455.050693,465.649132 455.050693,464.055831 C455.050693,459.807029 452.68835,458.036694 445.128853,458.036694 L428.887747,458.036694 L423.040949,491.496016 L430.364212,491.496016 Z M479.631164,491.496016 L482.170682,485.535889 L471.835433,485.535889 C467.937568,485.535889 466.638279,485.0638 466.638279,482.526321 C466.638279,481.46412 466.874513,479.988842 467.346982,477.451362 L468.764387,469.602879 C469.591207,465.177043 470.477086,463.99682 474.788361,463.99682 L483.647147,463.99682 L486.127606,458.036694 L475.201771,458.036694 C465.338991,458.036694 463.035706,460.220107 461.382067,469.720902 L460.023719,477.451362 C459.492192,480.460931 459.255958,482.408299 459.255958,483.765555 C459.255958,489.371614 462.386062,491.496016 469.8865,491.496016 L479.631164,491.496016 Z M508.52291,491.496016 L510.944312,485.535889 L499.07354,485.535889 C495.648143,485.535889 494.585089,485.0638 494.585089,482.99841 C494.585089,482.349287 494.703206,481.405109 494.880381,480.40192 L495.175674,478.572574 L508.168559,478.572574 C513.07042,478.572574 515.019353,476.743228 515.96429,471.491236 L516.79111,466.829355 C516.968286,465.885177 517.027344,464.940999 517.027344,464.232865 C517.027344,459.275928 513.720064,457.623616 507.518915,457.623616 L503.502932,457.623616 C494.821323,457.623616 491.395926,459.275928 489.97852,467.419467 L487.675236,480.637964 C487.439002,482.054232 487.261826,483.52951 487.261826,484.768745 C487.261826,489.548648 489.97852,491.496016 497.656134,491.496016 L508.52291,491.496016 Z M506.278685,472.848493 L496.238728,472.848493 L497.183666,467.419467 C497.807324,464.020425 499.029695,463.558155 501.530043,463.526612 L506.042451,463.524731 C508.759145,463.524731 509.645023,463.878798 509.645023,465.295065 C509.645023,465.708144 509.585965,466.121222 509.467848,466.829355 L508.818203,470.66508 C508.581969,472.19937 507.932325,472.848493 506.278685,472.848493 Z M525.898236,491.496016 L530.68198,464.114843 L539.304531,464.114843 C542.080284,464.114843 542.966162,464.527921 542.966162,466.593311 C542.966162,467.478478 542.788987,468.953757 542.375577,471.255191 L538.773004,491.496016 L546.096266,491.496016 L549.639781,471.255191 C550.230366,467.832545 550.584718,465.649132 550.584718,464.055831 C550.584718,459.807029 548.222375,458.036694 540.662878,458.036694 L524.421772,458.036694 L518.574974,491.496016 L525.898236,491.496016 Z M571.149206,491.496016 L573.688725,485.535889 L569.672742,485.535889 C565.833935,485.535889 564.357471,485.476878 564.357471,483.116432 C564.357471,482.172254 564.593705,480.637964 564.888998,479.044663 L567.546634,463.99682 L576.936946,463.99682 L578,458.036694 L568.609688,458.036694 L570.381445,448.122821 L563.058182,448.122821 L561.286425,458.036694 L556.857033,458.036694 L555.853037,463.99682 L560.223371,463.99682 L557.565736,479.044663 C557.211384,480.93302 556.916091,482.99841 556.916091,484.5327 C556.916091,489.725681 560.223371,491.496016 566.837931,491.496016 L571.149206,491.496016 Z" id="SpringCloudTencent" fill="#000000" fill-rule="nonzero"></path>
            <g id="编组" transform="translate(75.310868, 0.000000)">
                <polygon id="路径-2备份-10" fill="#95D2F7" points="231.955913 23.4111737 231.955913 84.6086825 285.104811 54.0099281"></polygon>
                <polygon id="矩形备份-25" fill="#7F98FF" points="116.118865 149.009681 262.06456 233.618364 262.06456 402.835729 116.118865 318.227046"></polygon>
                <polygon id="矩形备份-26" fill="#7F98FF" transform="translate(304.453002, 131.040729) scale(-1, 1) translate(-304.453002, -131.040729) " points="231.480155 4.65550191e-13 377.42585 84.6086825 377.42585 262.081458 231.480155 177.472776"></polygon>
                <polygon id="矩形备份-27" fill="#95D2F7" transform="translate(116.118865, 82.760251) scale(-1, 1) translate(-116.118865, -82.760251) " points="116.118865 15.4429914 232.237731 82.7602511 116.118865 150.077511 8.25074163e-13 82.7602511"></polygon>
                <polygon id="路径-3" fill="#4065FF" points="231.480155 216.013606 231.480155 262.081458 262.06456 244.66743 262.06456 233.618364"></polygon>
            </g>
        </g>
    </g>
</svg>